<?xml version="1.0" encoding="utf-8" standalone="no"?>
<!DOCTYPE svg PUBLIC "-//W3C//DTD SVG 1.1//EN"
  "http://www.w3.org/Graphics/SVG/1.1/DTD/svg11.dtd">
<!-- Created with matplotlib (https://matplotlib.org/) -->
<svg height="72pt" version="1.1" viewBox="0 0 504 72" width="504pt" xmlns="http://www.w3.org/2000/svg" xmlns:xlink="http://www.w3.org/1999/xlink">
 <defs>
  <style type="text/css">
*{stroke-linecap:butt;stroke-linejoin:round;}
  </style>
 </defs>
 <g id="figure_1">
  <g id="patch_1">
   <path d="M 0 72 
L 504 72 
L 504 0 
L 0 0 
z
" style="fill:#ffffff;"/>
  </g>
  <g id="axes_1">
   <g id="patch_2">
    <path d="M 63 63 
L 453.6 63 
L 453.6 8.64 
L 63 8.64 
z
" style="fill:#ffffff;"/>
   </g>
   <g id="matplotlib.axis_1">
    <g id="xtick_1">
     <g id="line2d_1">
      <defs>
       <path d="M 0 0 
L 0 3.5 
" id="mf6b337ea10" style="stroke:#000000;stroke-width:0.8;"/>
      </defs>
      <g>
       <use style="stroke:#000000;stroke-width:0.8;" x="80.754545" xlink:href="#mf6b337ea10" y="63"/>
      </g>
     </g>
     <g id="text_1">
      <!-- 0 -->
      <defs>
       <path d="M 31.78125 66.40625 
Q 24.171875 66.40625 20.328125 58.90625 
Q 16.5 51.421875 16.5 36.375 
Q 16.5 21.390625 20.328125 13.890625 
Q 24.171875 6.390625 31.78125 6.390625 
Q 39.453125 6.390625 43.28125 13.890625 
Q 47.125 21.390625 47.125 36.375 
Q 47.125 51.421875 43.28125 58.90625 
Q 39.453125 66.40625 31.78125 66.40625 
z
M 31.78125 74.21875 
Q 44.046875 74.21875 50.515625 64.515625 
Q 56.984375 54.828125 56.984375 36.375 
Q 56.984375 17.96875 50.515625 8.265625 
Q 44.046875 -1.421875 31.78125 -1.421875 
Q 19.53125 -1.421875 13.0625 8.265625 
Q 6.59375 17.96875 6.59375 36.375 
Q 6.59375 54.828125 13.0625 64.515625 
Q 19.53125 74.21875 31.78125 74.21875 
z
" id="DejaVuSans-48"/>
      </defs>
      <g transform="translate(76.937045 79.118125)scale(0.12 -0.12)">
       <use xlink:href="#DejaVuSans-48"/>
      </g>
     </g>
    </g>
    <g id="xtick_2">
     <g id="line2d_2">
      <g>
       <use style="stroke:#000000;stroke-width:0.8;" x="161.762972" xlink:href="#mf6b337ea10" y="63"/>
      </g>
     </g>
     <g id="text_2">
      <!-- 1 -->
      <defs>
       <path d="M 12.40625 8.296875 
L 28.515625 8.296875 
L 28.515625 63.921875 
L 10.984375 60.40625 
L 10.984375 69.390625 
L 28.421875 72.90625 
L 38.28125 72.90625 
L 38.28125 8.296875 
L 54.390625 8.296875 
L 54.390625 0 
L 12.40625 0 
z
" id="DejaVuSans-49"/>
      </defs>
      <g transform="translate(157.945472 79.118125)scale(0.12 -0.12)">
       <use xlink:href="#DejaVuSans-49"/>
      </g>
     </g>
    </g>
    <g id="xtick_3">
     <g id="line2d_3">
      <g>
       <use style="stroke:#000000;stroke-width:0.8;" x="242.771398" xlink:href="#mf6b337ea10" y="63"/>
      </g>
     </g>
     <g id="text_3">
      <!-- 2 -->
      <defs>
       <path d="M 19.1875 8.296875 
L 53.609375 8.296875 
L 53.609375 0 
L 7.328125 0 
L 7.328125 8.296875 
Q 12.9375 14.109375 22.625 23.890625 
Q 32.328125 33.6875 34.8125 36.53125 
Q 39.546875 41.84375 41.421875 45.53125 
Q 43.3125 49.21875 43.3125 52.78125 
Q 43.3125 58.59375 39.234375 62.25 
Q 35.15625 65.921875 28.609375 65.921875 
Q 23.96875 65.921875 18.8125 64.3125 
Q 13.671875 62.703125 7.8125 59.421875 
L 7.8125 69.390625 
Q 13.765625 71.78125 18.9375 73 
Q 24.125 74.21875 28.421875 74.21875 
Q 39.75 74.21875 46.484375 68.546875 
Q 53.21875 62.890625 53.21875 53.421875 
Q 53.21875 48.921875 51.53125 44.890625 
Q 49.859375 40.875 45.40625 35.40625 
Q 44.1875 33.984375 37.640625 27.21875 
Q 31.109375 20.453125 19.1875 8.296875 
z
" id="DejaVuSans-50"/>
      </defs>
      <g transform="translate(238.953898 79.118125)scale(0.12 -0.12)">
       <use xlink:href="#DejaVuSans-50"/>
      </g>
     </g>
    </g>
    <g id="xtick_4">
     <g id="line2d_4">
      <g>
       <use style="stroke:#000000;stroke-width:0.8;" x="323.779824" xlink:href="#mf6b337ea10" y="63"/>
      </g>
     </g>
     <g id="text_4">
      <!-- 3 -->
      <defs>
       <path d="M 40.578125 39.3125 
Q 47.65625 37.796875 51.625 33 
Q 55.609375 28.21875 55.609375 21.1875 
Q 55.609375 10.40625 48.1875 4.484375 
Q 40.765625 -1.421875 27.09375 -1.421875 
Q 22.515625 -1.421875 17.65625 -0.515625 
Q 12.796875 0.390625 7.625 2.203125 
L 7.625 11.71875 
Q 11.71875 9.328125 16.59375 8.109375 
Q 21.484375 6.890625 26.8125 6.890625 
Q 36.078125 6.890625 40.9375 10.546875 
Q 45.796875 14.203125 45.796875 21.1875 
Q 45.796875 27.640625 41.28125 31.265625 
Q 36.765625 34.90625 28.71875 34.90625 
L 20.21875 34.90625 
L 20.21875 43.015625 
L 29.109375 43.015625 
Q 36.375 43.015625 40.234375 45.921875 
Q 44.09375 48.828125 44.09375 54.296875 
Q 44.09375 59.90625 40.109375 62.90625 
Q 36.140625 65.921875 28.71875 65.921875 
Q 24.65625 65.921875 20.015625 65.03125 
Q 15.375 64.15625 9.8125 62.3125 
L 9.8125 71.09375 
Q 15.4375 72.65625 20.34375 73.4375 
Q 25.25 74.21875 29.59375 74.21875 
Q 40.828125 74.21875 47.359375 69.109375 
Q 53.90625 64.015625 53.90625 55.328125 
Q 53.90625 49.265625 50.4375 45.09375 
Q 46.96875 40.921875 40.578125 39.3125 
z
" id="DejaVuSans-51"/>
      </defs>
      <g transform="translate(319.962324 79.118125)scale(0.12 -0.12)">
       <use xlink:href="#DejaVuSans-51"/>
      </g>
     </g>
    </g>
    <g id="xtick_5">
     <g id="line2d_5">
      <g>
       <use style="stroke:#000000;stroke-width:0.8;" x="404.78825" xlink:href="#mf6b337ea10" y="63"/>
      </g>
     </g>
     <g id="text_5">
      <!-- 4 -->
      <defs>
       <path d="M 37.796875 64.3125 
L 12.890625 25.390625 
L 37.796875 25.390625 
z
M 35.203125 72.90625 
L 47.609375 72.90625 
L 47.609375 25.390625 
L 58.015625 25.390625 
L 58.015625 17.1875 
L 47.609375 17.1875 
L 47.609375 0 
L 37.796875 0 
L 37.796875 17.1875 
L 4.890625 17.1875 
L 4.890625 26.703125 
z
" id="DejaVuSans-52"/>
      </defs>
      <g transform="translate(400.97075 79.118125)scale(0.12 -0.12)">
       <use xlink:href="#DejaVuSans-52"/>
      </g>
     </g>
    </g>
    <g id="text_6">
     <!-- Width (mm) -->
     <defs>
      <path d="M 3.328125 72.90625 
L 13.28125 72.90625 
L 28.609375 11.28125 
L 43.890625 72.90625 
L 54.984375 72.90625 
L 70.3125 11.28125 
L 85.59375 72.90625 
L 95.609375 72.90625 
L 77.296875 0 
L 64.890625 0 
L 49.515625 63.28125 
L 33.984375 0 
L 21.578125 0 
z
" id="DejaVuSans-87"/>
      <path d="M 9.421875 54.6875 
L 18.40625 54.6875 
L 18.40625 0 
L 9.421875 0 
z
M 9.421875 75.984375 
L 18.40625 75.984375 
L 18.40625 64.59375 
L 9.421875 64.59375 
z
" id="DejaVuSans-105"/>
      <path d="M 45.40625 46.390625 
L 45.40625 75.984375 
L 54.390625 75.984375 
L 54.390625 0 
L 45.40625 0 
L 45.40625 8.203125 
Q 42.578125 3.328125 38.25 0.953125 
Q 33.9375 -1.421875 27.875 -1.421875 
Q 17.96875 -1.421875 11.734375 6.484375 
Q 5.515625 14.40625 5.515625 27.296875 
Q 5.515625 40.1875 11.734375 48.09375 
Q 17.96875 56 27.875 56 
Q 33.9375 56 38.25 53.625 
Q 42.578125 51.265625 45.40625 46.390625 
z
M 14.796875 27.296875 
Q 14.796875 17.390625 18.875 11.75 
Q 22.953125 6.109375 30.078125 6.109375 
Q 37.203125 6.109375 41.296875 11.75 
Q 45.40625 17.390625 45.40625 27.296875 
Q 45.40625 37.203125 41.296875 42.84375 
Q 37.203125 48.484375 30.078125 48.484375 
Q 22.953125 48.484375 18.875 42.84375 
Q 14.796875 37.203125 14.796875 27.296875 
z
" id="DejaVuSans-100"/>
      <path d="M 18.3125 70.21875 
L 18.3125 54.6875 
L 36.8125 54.6875 
L 36.8125 47.703125 
L 18.3125 47.703125 
L 18.3125 18.015625 
Q 18.3125 11.328125 20.140625 9.421875 
Q 21.96875 7.515625 27.59375 7.515625 
L 36.8125 7.515625 
L 36.8125 0 
L 27.59375 0 
Q 17.1875 0 13.234375 3.875 
Q 9.28125 7.765625 9.28125 18.015625 
L 9.28125 47.703125 
L 2.6875 47.703125 
L 2.6875 54.6875 
L 9.28125 54.6875 
L 9.28125 70.21875 
z
" id="DejaVuSans-116"/>
      <path d="M 54.890625 33.015625 
L 54.890625 0 
L 45.90625 0 
L 45.90625 32.71875 
Q 45.90625 40.484375 42.875 44.328125 
Q 39.84375 48.1875 33.796875 48.1875 
Q 26.515625 48.1875 22.3125 43.546875 
Q 18.109375 38.921875 18.109375 30.90625 
L 18.109375 0 
L 9.078125 0 
L 9.078125 75.984375 
L 18.109375 75.984375 
L 18.109375 46.1875 
Q 21.34375 51.125 25.703125 53.5625 
Q 30.078125 56 35.796875 56 
Q 45.21875 56 50.046875 50.171875 
Q 54.890625 44.34375 54.890625 33.015625 
z
" id="DejaVuSans-104"/>
      <path id="DejaVuSans-32"/>
      <path d="M 31 75.875 
Q 24.46875 64.65625 21.28125 53.65625 
Q 18.109375 42.671875 18.109375 31.390625 
Q 18.109375 20.125 21.3125 9.0625 
Q 24.515625 -2 31 -13.1875 
L 23.1875 -13.1875 
Q 15.875 -1.703125 12.234375 9.375 
Q 8.59375 20.453125 8.59375 31.390625 
Q 8.59375 42.28125 12.203125 53.3125 
Q 15.828125 64.359375 23.1875 75.875 
z
" id="DejaVuSans-40"/>
      <path d="M 52 44.1875 
Q 55.375 50.25 60.0625 53.125 
Q 64.75 56 71.09375 56 
Q 79.640625 56 84.28125 50.015625 
Q 88.921875 44.046875 88.921875 33.015625 
L 88.921875 0 
L 79.890625 0 
L 79.890625 32.71875 
Q 79.890625 40.578125 77.09375 44.375 
Q 74.3125 48.1875 68.609375 48.1875 
Q 61.625 48.1875 57.5625 43.546875 
Q 53.515625 38.921875 53.515625 30.90625 
L 53.515625 0 
L 44.484375 0 
L 44.484375 32.71875 
Q 44.484375 40.625 41.703125 44.40625 
Q 38.921875 48.1875 33.109375 48.1875 
Q 26.21875 48.1875 22.15625 43.53125 
Q 18.109375 38.875 18.109375 30.90625 
L 18.109375 0 
L 9.078125 0 
L 9.078125 54.6875 
L 18.109375 54.6875 
L 18.109375 46.1875 
Q 21.1875 51.21875 25.484375 53.609375 
Q 29.78125 56 35.6875 56 
Q 41.65625 56 45.828125 52.96875 
Q 50 49.953125 52 44.1875 
z
" id="DejaVuSans-109"/>
      <path d="M 8.015625 75.875 
L 15.828125 75.875 
Q 23.140625 64.359375 26.78125 53.3125 
Q 30.421875 42.28125 30.421875 31.390625 
Q 30.421875 20.453125 26.78125 9.375 
Q 23.140625 -1.703125 15.828125 -13.1875 
L 8.015625 -13.1875 
Q 14.5 -2 17.703125 9.0625 
Q 20.90625 20.125 20.90625 31.390625 
Q 20.90625 42.671875 17.703125 53.65625 
Q 14.5 64.65625 8.015625 75.875 
z
" id="DejaVuSans-41"/>
     </defs>
     <g transform="translate(216.488125 96.251563)scale(0.14 -0.14)">
      <use xlink:href="#DejaVuSans-87"/>
      <use x="98.845703" xlink:href="#DejaVuSans-105"/>
      <use x="126.628906" xlink:href="#DejaVuSans-100"/>
      <use x="190.105469" xlink:href="#DejaVuSans-116"/>
      <use x="229.314453" xlink:href="#DejaVuSans-104"/>
      <use x="292.693359" xlink:href="#DejaVuSans-32"/>
      <use x="324.480469" xlink:href="#DejaVuSans-40"/>
      <use x="363.494141" xlink:href="#DejaVuSans-109"/>
      <use x="460.90625" xlink:href="#DejaVuSans-109"/>
      <use x="558.318359" xlink:href="#DejaVuSans-41"/>
     </g>
    </g>
   </g>
   <g id="matplotlib.axis_2">
    <g id="ytick_1">
     <g id="line2d_6">
      <defs>
       <path d="M 0 0 
L -3.5 0 
" id="mcaf678d25d" style="stroke:#000000;stroke-width:0.8;"/>
      </defs>
      <g>
       <use style="stroke:#000000;stroke-width:0.8;" x="63" xlink:href="#mcaf678d25d" y="47.997606"/>
      </g>
     </g>
     <g id="text_7">
      <!-- 3.0 -->
      <defs>
       <path d="M 10.6875 12.40625 
L 21 12.40625 
L 21 0 
L 10.6875 0 
z
" id="DejaVuSans-46"/>
      </defs>
      <g transform="translate(36.91625 52.556668)scale(0.12 -0.12)">
       <use xlink:href="#DejaVuSans-51"/>
       <use x="63.623047" xlink:href="#DejaVuSans-46"/>
       <use x="95.410156" xlink:href="#DejaVuSans-48"/>
      </g>
     </g>
    </g>
    <g id="ytick_2">
     <g id="line2d_7">
      <g>
       <use style="stroke:#000000;stroke-width:0.8;" x="63" xlink:href="#mcaf678d25d" y="27.181186"/>
      </g>
     </g>
     <g id="text_8">
      <!-- 3.5 -->
      <defs>
       <path d="M 10.796875 72.90625 
L 49.515625 72.90625 
L 49.515625 64.59375 
L 19.828125 64.59375 
L 19.828125 46.734375 
Q 21.96875 47.46875 24.109375 47.828125 
Q 26.265625 48.1875 28.421875 48.1875 
Q 40.625 48.1875 47.75 41.5 
Q 54.890625 34.8125 54.890625 23.390625 
Q 54.890625 11.625 47.5625 5.09375 
Q 40.234375 -1.421875 26.90625 -1.421875 
Q 22.3125 -1.421875 17.546875 -0.640625 
Q 12.796875 0.140625 7.71875 1.703125 
L 7.71875 11.625 
Q 12.109375 9.234375 16.796875 8.0625 
Q 21.484375 6.890625 26.703125 6.890625 
Q 35.15625 6.890625 40.078125 11.328125 
Q 45.015625 15.765625 45.015625 23.390625 
Q 45.015625 31 40.078125 35.4375 
Q 35.15625 39.890625 26.703125 39.890625 
Q 22.75 39.890625 18.8125 39.015625 
Q 14.890625 38.140625 10.796875 36.28125 
z
" id="DejaVuSans-53"/>
      </defs>
      <g transform="translate(36.91625 31.740248)scale(0.12 -0.12)">
       <use xlink:href="#DejaVuSans-51"/>
       <use x="63.623047" xlink:href="#DejaVuSans-46"/>
       <use x="95.410156" xlink:href="#DejaVuSans-53"/>
      </g>
     </g>
    </g>
    <g id="text_9">
     <!-- Height (mm) -->
     <defs>
      <path d="M 9.8125 72.90625 
L 19.671875 72.90625 
L 19.671875 43.015625 
L 55.515625 43.015625 
L 55.515625 72.90625 
L 65.375 72.90625 
L 65.375 0 
L 55.515625 0 
L 55.515625 34.71875 
L 19.671875 34.71875 
L 19.671875 0 
L 9.8125 0 
z
" id="DejaVuSans-72"/>
      <path d="M 56.203125 29.59375 
L 56.203125 25.203125 
L 14.890625 25.203125 
Q 15.484375 15.921875 20.484375 11.0625 
Q 25.484375 6.203125 34.421875 6.203125 
Q 39.59375 6.203125 44.453125 7.46875 
Q 49.3125 8.734375 54.109375 11.28125 
L 54.109375 2.78125 
Q 49.265625 0.734375 44.1875 -0.34375 
Q 39.109375 -1.421875 33.890625 -1.421875 
Q 20.796875 -1.421875 13.15625 6.1875 
Q 5.515625 13.8125 5.515625 26.8125 
Q 5.515625 40.234375 12.765625 48.109375 
Q 20.015625 56 32.328125 56 
Q 43.359375 56 49.78125 48.890625 
Q 56.203125 41.796875 56.203125 29.59375 
z
M 47.21875 32.234375 
Q 47.125 39.59375 43.09375 43.984375 
Q 39.0625 48.390625 32.421875 48.390625 
Q 24.90625 48.390625 20.390625 44.140625 
Q 15.875 39.890625 15.1875 32.171875 
z
" id="DejaVuSans-101"/>
      <path d="M 45.40625 27.984375 
Q 45.40625 37.75 41.375 43.109375 
Q 37.359375 48.484375 30.078125 48.484375 
Q 22.859375 48.484375 18.828125 43.109375 
Q 14.796875 37.75 14.796875 27.984375 
Q 14.796875 18.265625 18.828125 12.890625 
Q 22.859375 7.515625 30.078125 7.515625 
Q 37.359375 7.515625 41.375 12.890625 
Q 45.40625 18.265625 45.40625 27.984375 
z
M 54.390625 6.78125 
Q 54.390625 -7.171875 48.1875 -13.984375 
Q 42 -20.796875 29.203125 -20.796875 
Q 24.46875 -20.796875 20.265625 -20.09375 
Q 16.0625 -19.390625 12.109375 -17.921875 
L 12.109375 -9.1875 
Q 16.0625 -11.328125 19.921875 -12.34375 
Q 23.78125 -13.375 27.78125 -13.375 
Q 36.625 -13.375 41.015625 -8.765625 
Q 45.40625 -4.15625 45.40625 5.171875 
L 45.40625 9.625 
Q 42.625 4.78125 38.28125 2.390625 
Q 33.9375 0 27.875 0 
Q 17.828125 0 11.671875 7.65625 
Q 5.515625 15.328125 5.515625 27.984375 
Q 5.515625 40.671875 11.671875 48.328125 
Q 17.828125 56 27.875 56 
Q 33.9375 56 38.28125 53.609375 
Q 42.625 51.21875 45.40625 46.390625 
L 45.40625 54.6875 
L 54.390625 54.6875 
z
" id="DejaVuSans-103"/>
     </defs>
     <g transform="translate(30.004688 80.284219)rotate(-90)scale(0.14 -0.14)">
      <use xlink:href="#DejaVuSans-72"/>
      <use x="75.195312" xlink:href="#DejaVuSans-101"/>
      <use x="136.71875" xlink:href="#DejaVuSans-105"/>
      <use x="164.501953" xlink:href="#DejaVuSans-103"/>
      <use x="227.978516" xlink:href="#DejaVuSans-104"/>
      <use x="291.357422" xlink:href="#DejaVuSans-116"/>
      <use x="330.566406" xlink:href="#DejaVuSans-32"/>
      <use x="362.353516" xlink:href="#DejaVuSans-40"/>
      <use x="401.367188" xlink:href="#DejaVuSans-109"/>
      <use x="498.779297" xlink:href="#DejaVuSans-109"/>
      <use x="596.191406" xlink:href="#DejaVuSans-41"/>
     </g>
    </g>
   </g>
   <g id="line2d_8">
    <path clip-path="url(#pfd659919d2)" d="M 80.754545 51.619663 
L 80.849795 51.702929 
L 81.040295 52.45232 
L 81.421293 54.95029 
L 81.897542 55.574783 
L 82.37379 56.032744 
L 82.56429 55.616416 
L 82.850039 54.242532 
L 83.421537 50.162514 
L 83.516787 50.495576 
L 83.802536 51.619663 
L 83.897786 51.369866 
L 84.564534 46.207394 
L 84.850283 45.832698 
L 84.945533 45.915964 
L 85.231282 46.790254 
L 85.612281 45.666167 
L 85.80278 45.915964 
L 85.89803 45.749432 
L 86.564778 42.210641 
L 86.850527 42.002477 
L 87.136276 41.502883 
L 87.326775 40.87839 
L 88.088773 37.173067 
L 88.374522 36.881637 
L 88.469772 36.964903 
L 89.422269 39.171444 
L 89.612768 39.129811 
L 89.803268 39.046545 
L 89.993767 39.171444 
L 90.089017 39.296342 
L 90.184266 39.213077 
L 90.279516 38.921647 
L 90.470016 37.131434 
L 90.851014 32.218759 
L 90.946264 32.010595 
L 91.232013 33.134682 
L 91.327263 33.009783 
L 91.803512 30.969774 
L 91.994011 30.803243 
L 92.27976 30.719977 
L 92.565509 30.386914 
L 92.756009 30.553446 
L 93.041758 30.886508 
L 93.232257 30.803243 
L 93.422757 30.76161 
L 93.708506 30.844876 
L 93.899005 30.76161 
L 94.375254 30.719977 
L 94.661003 30.553446 
L 94.851502 30.47018 
L 95.042002 30.095484 
L 95.423 29.346093 
L 96.184998 28.138741 
L 96.375497 28.305272 
L 96.661247 28.513436 
L 96.851746 28.471804 
L 97.327995 27.764045 
L 97.423244 27.805678 
L 97.613744 27.555881 
L 97.804243 27.347717 
L 98.185242 27.597514 
L 98.375741 28.055475 
L 98.85199 29.221195 
L 99.328238 30.428547 
L 99.709237 31.427735 
L 99.899737 31.719165 
L 101.137983 35.715918 
L 101.233233 35.674285 
L 101.709481 34.383667 
L 102.471479 35.466121 
L 102.852478 36.465309 
L 103.614475 37.048169 
L 103.900224 37.006536 
L 104.185973 37.089802 
L 104.662222 37.381232 
L 105.23372 37.173067 
L 105.614719 37.422864 
L 105.900468 37.381232 
L 106.471966 37.964091 
L 107.138714 38.630217 
L 107.710213 39.837569 
L 108.56746 41.502883 
L 109.043709 42.252274 
L 109.424707 42.918399 
L 109.710456 43.293095 
L 110.091455 44.333916 
L 110.662954 46.706988 
L 110.853453 46.790254 
L 111.043952 46.582089 
L 111.329702 46.124128 
L 111.424951 46.582089 
L 111.7107 49.288224 
L 111.996449 45.333104 
L 112.091699 45.499635 
L 112.282199 46.082495 
L 112.758447 43.542892 
L 112.853697 43.626158 
L 113.234696 44.500447 
L 113.425195 44.125752 
L 113.710944 43.126564 
L 113.996693 41.794313 
L 114.187193 41.794313 
L 114.282442 41.669414 
L 114.94919 38.213888 
L 115.615938 37.256333 
L 115.901687 37.089802 
L 115.996937 37.089802 
L 116.187437 36.673473 
L 116.854185 35.216324 
L 117.044684 35.382855 
L 117.235183 34.217136 
L 117.425683 33.301213 
L 117.711432 35.00816 
L 117.997181 35.591019 
L 118.092431 35.382855 
L 118.28293 35.924082 
L 118.759179 37.339599 
L 118.854428 37.381232 
L 119.044928 36.840005 
L 119.425927 34.675097 
L 119.616426 34.841628 
L 119.806925 35.382855 
L 120.568923 38.880014 
L 120.759423 39.046545 
L 120.949922 39.004912 
L 121.52142 38.588584 
L 121.902419 38.67185 
L 122.092918 38.67185 
L 122.283418 38.630217 
L 122.569167 39.129811 
L 122.854916 38.963279 
L 123.140665 39.337975 
L 123.521664 39.088178 
L 123.807413 38.67185 
L 123.902663 38.67185 
L 124.188412 39.004912 
L 124.75991 38.38042 
L 125.045659 38.755115 
L 125.426658 39.088178 
L 125.712407 39.213077 
L 126.283906 39.129811 
L 126.569655 38.880014 
L 127.045903 39.213077 
L 127.426902 38.755115 
L 127.9984 37.755927 
L 128.1889 37.297966 
L 128.379399 36.340411 
L 128.760398 34.4253 
L 128.950897 34.217136 
L 129.236647 34.13387 
L 130.093894 34.4253 
L 130.570142 34.466933 
L 130.951141 34.841628 
L 131.141641 34.550198 
L 131.617889 33.925706 
L 132.189387 33.759174 
L 132.475137 33.84244 
L 132.856135 33.25958 
L 133.141885 32.302025 
L 133.427634 31.261204 
L 133.522883 31.261204 
L 133.713383 31.760798 
L 133.999132 32.510189 
L 134.094382 32.302025 
L 134.284881 30.803243 
L 134.66588 27.139553 
L 135.046879 25.266075 
L 135.332628 24.599949 
L 135.618377 24.350152 
L 135.904126 24.433418 
L 136.189875 24.808114 
L 136.475624 25.432606 
L 137.332872 28.388538 
L 137.80912 30.803243 
L 137.99962 31.760798 
L 138.285369 33.634276 
L 138.380618 33.717542 
L 138.571118 33.051416 
L 139.142616 30.553446 
L 139.333115 30.47018 
L 139.523615 30.928141 
L 139.904614 32.635088 
L 139.999863 32.551822 
L 140.761861 28.430171 
L 141.04761 27.056287 
L 142.095357 24.599949 
L 142.381106 24.433418 
L 143.143104 23.267699 
L 143.714602 22.351776 
L 144.095601 22.726472 
L 144.38135 22.684839 
L 144.571849 22.643206 
L 144.762349 22.26851 
L 145.238597 21.310955 
L 145.810096 20.436665 
L 146.476844 19.062782 
L 146.572093 19.146047 
L 146.857842 20.145236 
L 147.143591 20.977892 
L 147.334091 21.186057 
L 147.810339 21.102791 
L 148.000839 20.894627 
L 148.667587 19.395844 
L 149.048586 18.937883 
L 149.810583 18.396656 
L 150.001083 18.438289 
L 150.286832 18.355023 
L 150.477331 18.521555 
L 150.85833 19.562376 
L 151.334579 20.852994 
L 151.715577 21.560752 
L 152.001327 21.768916 
L 152.287076 22.060346 
L 152.668075 21.97708 
L 152.953824 21.768916 
L 153.430072 21.435854 
L 153.715821 21.602385 
L 153.906321 21.935448 
L 154.28732 22.768104 
L 154.573069 22.726472 
L 155.144567 23.101167 
L 155.525566 22.893003 
L 155.906565 23.350964 
L 156.287563 23.684027 
L 156.763812 23.767293 
L 156.954311 23.808925 
L 157.33531 23.559128 
L 157.52581 22.726472 
L 157.811559 21.269322 
L 158.383057 20.686462 
L 158.668806 20.519931 
L 158.859306 20.561564 
L 159.526053 21.227689 
L 159.907052 21.893815 
L 160.288051 22.143612 
L 161.050049 22.976269 
L 161.621547 23.267699 
L 162.193045 24.433418 
L 162.478794 24.974645 
L 162.764544 25.016278 
L 163.050293 25.390973 
L 163.431291 26.265263 
L 163.81229 27.306084 
L 164.098039 29.429359 
L 164.383789 31.011407 
L 164.574288 31.011407 
L 164.860037 30.511813 
L 165.145786 29.970586 
L 165.717284 29.054663 
L 166.288783 27.68078 
L 166.479282 27.847311 
L 167.24128 29.013031 
L 167.431779 29.096296 
L 167.812778 29.470992 
L 168.098527 29.679156 
L 168.765275 30.719977 
L 169.146274 30.928141 
L 169.813022 32.177126 
L 170.003521 32.093861 
L 170.47977 31.469368 
L 170.956018 31.34447 
L 171.241767 31.719165 
L 171.527517 31.927329 
L 172.194265 31.968962 
L 172.575263 32.385291 
L 173.051512 32.426923 
L 173.242011 32.843252 
L 173.432511 33.342846 
L 173.62301 33.384479 
L 174.099259 32.676721 
L 174.194508 32.801619 
L 174.766007 34.300401 
L 174.861256 34.050604 
L 175.147005 32.302025 
L 175.242255 32.343658 
L 175.432755 32.551822 
L 176.004253 32.052228 
L 176.290002 30.886508 
L 176.575751 29.88732 
L 176.76625 29.679156 
L 177.052 29.720789 
L 177.432998 30.17875 
L 177.718748 30.428547 
L 177.813997 30.345281 
L 178.004497 29.554257 
L 178.385496 27.639147 
L 178.575995 27.555881 
L 178.956994 27.639147 
L 179.528492 29.096296 
L 179.814241 29.262828 
L 180.480989 30.511813 
L 180.576239 30.553446 
L 180.766738 30.303649 
L 181.052487 29.637523 
L 181.242987 29.804055 
L 181.719235 30.511813 
L 182.385983 30.719977 
L 182.576483 30.636711 
L 182.957481 30.262016 
L 183.147981 30.095484 
L 183.909979 28.929765 
L 184.290977 28.471804 
L 184.767226 27.764045 
L 185.148225 26.973021 
L 185.433974 26.764857 
L 185.624473 26.723224 
L 185.814973 26.723224 
L 186.100722 26.556693 
L 186.57697 26.51506 
L 187.434218 25.682403 
L 187.910466 24.808114 
L 188.196215 26.181997 
L 188.386715 26.764857 
L 188.767714 27.014654 
L 188.958213 26.931389 
L 189.434462 26.140365 
L 190.196459 27.264451 
L 191.053707 28.888132 
L 191.720455 29.637523 
L 192.101453 29.429359 
L 192.291953 29.387726 
L 192.482452 29.30446 
L 192.863451 29.387726 
L 193.1492 29.30446 
L 193.3397 29.179562 
L 193.815948 28.721601 
L 194.958945 29.59589 
L 195.054194 29.470992 
L 195.244694 28.513436 
L 195.816192 23.392597 
L 196.006691 22.893003 
L 196.673439 20.686462 
L 196.959188 20.145236 
L 197.054438 20.228501 
L 197.340187 21.019525 
L 197.435437 21.019525 
L 197.911686 20.395033 
L 198.102185 20.395033 
L 198.578433 21.352588 
L 198.673683 21.269322 
L 199.149932 20.395033 
L 199.530931 19.312579 
L 200.102429 18.688086 
L 200.673927 18.479922 
L 201.435925 18.89625 
L 201.721674 19.229313 
L 202.197922 19.312579 
L 202.388422 19.354212 
L 202.674171 18.979516 
L 203.245669 18.396656 
L 203.436169 18.230125 
L 204.102917 17.397468 
L 204.293416 17.730531 
L 204.674415 18.563188 
L 204.769664 18.646453 
L 204.864914 18.355023 
L 205.341163 15.024396 
L 205.531662 15.690522 
L 205.912661 17.439101 
L 206.19841 18.063593 
L 206.484159 18.105226 
L 207.246157 18.063593 
L 207.817655 17.522367 
L 208.293904 16.606444 
L 208.484403 17.855429 
L 208.960652 22.435042 
L 209.055901 22.55994 
L 209.53215 17.064405 
L 209.6274 17.189304 
L 210.294147 19.937071 
L 210.484647 19.978704 
L 210.770396 19.645641 
L 210.960895 19.77054 
L 211.246645 20.020337 
L 211.722893 20.186868 
L 212.008642 20.06197 
L 212.199142 19.47911 
L 212.58014 17.397468 
L 212.67539 17.355835 
L 213.532638 18.021961 
L 213.818387 17.397468 
L 214.580384 13.525614 
L 214.675634 13.525614 
L 214.866133 14.025208 
L 215.056633 14.566435 
L 215.151883 14.441536 
L 215.437632 13.733778 
L 215.818631 14.94113 
L 215.91388 14.857865 
L 216.199629 14.399904 
L 216.485378 14.608068 
L 218.104623 17.27257 
L 218.295123 17.27257 
L 218.580872 18.021961 
L 218.676122 17.980328 
L 218.866621 17.730531 
L 219.057121 17.688898 
L 219.438119 17.022772 
L 219.819118 16.439913 
L 219.914368 16.523178 
L 220.390616 18.230125 
L 220.485866 18.146859 
L 220.581116 18.188492 
L 220.771615 18.729719 
L 220.866865 18.688086 
L 221.152614 18.271758 
L 221.343114 18.188492 
L 221.914612 17.397468 
L 222.105111 17.230937 
L 222.48611 16.606444 
L 222.676609 16.606444 
L 222.962359 16.065217 
L 223.724356 14.316638 
L 223.914856 14.233372 
L 224.105355 14.316638 
L 224.295854 14.566435 
L 224.581604 15.190927 
L 225.057852 16.356647 
L 226.105599 17.897062 
L 226.581847 20.228501 
L 227.820094 19.270946 
L 228.201092 19.395844 
L 228.86784 19.18768 
L 229.344089 19.104414 
L 230.391836 17.647265 
L 231.058584 16.190116 
L 231.725332 14.857865 
L 232.011081 14.816232 
L 232.20158 14.899498 
L 232.582579 15.357459 
L 233.058828 16.023584 
L 233.344577 16.065217 
L 233.820825 16.564811 
L 235.059071 19.18768 
L 235.344821 19.270946 
L 235.53532 19.312579 
L 236.392567 18.646453 
L 236.583067 18.89625 
L 236.868816 19.270946 
L 237.440314 18.854617 
L 237.821313 19.437477 
L 238.488061 17.647265 
L 238.77381 17.980328 
L 239.154809 18.729719 
L 239.440558 18.688086 
L 239.631057 18.729719 
L 239.821557 18.60482 
L 240.107306 18.355023 
L 240.869304 17.980328 
L 241.155053 17.314202 
L 241.821801 15.107662 
L 242.0123 15.357459 
L 242.298049 16.065217 
L 243.060047 18.438289 
L 243.441046 18.937883 
L 244.107794 18.89625 
L 244.488792 18.230125 
L 244.774542 17.813796 
L 245.34604 17.230937 
L 245.631789 17.106038 
L 245.917538 16.897874 
L 246.108037 17.439101 
L 246.298537 18.021961 
L 246.393787 17.772164 
L 246.774785 14.899498 
L 247.155784 11.610503 
L 247.346284 11.152542 
L 247.822532 11.235808 
L 248.013032 11.693769 
L 248.298781 12.276629 
L 248.58453 12.817856 
L 248.775029 13.567247 
L 249.441777 18.063593 
L 249.822776 18.396656 
L 250.299025 18.271758 
L 250.489524 18.438289 
L 250.680023 18.60482 
L 250.870523 18.355023 
L 251.72777 16.39828 
L 252.204019 16.065217 
L 252.394518 16.231748 
L 252.775517 16.731343 
L 252.966016 16.98114 
L 253.156516 17.647265 
L 253.823264 20.3534 
L 254.013763 20.686462 
L 254.299512 20.852994 
L 254.490012 20.894627 
L 254.680511 21.394221 
L 254.96626 22.351776 
L 255.347259 22.809737 
L 255.728258 23.059534 
L 256.204506 23.600761 
L 256.585505 24.433418 
L 256.776005 24.516684 
L 257.157004 24.391785 
L 257.538002 24.641582 
L 257.919001 25.266075 
L 258.39525 26.265263 
L 259.252497 26.723224 
L 259.919245 27.847311 
L 260.300244 27.597514 
L 260.585993 27.888944 
L 260.776492 27.555881 
L 261.347991 25.807302 
L 261.63374 25.390973 
L 261.824239 25.432606 
L 262.109988 25.599138 
L 262.681487 25.64077 
L 263.157735 26.181997 
L 263.824483 27.222818 
L 264.110232 27.38935 
L 264.87223 28.305272 
L 265.157979 28.180374 
L 265.348478 28.305272 
L 265.538978 28.138741 
L 265.634227 28.305272 
L 265.919977 29.59589 
L 266.015226 29.554257 
L 266.586725 28.263639 
L 266.681974 28.263639 
L 266.872474 28.638335 
L 267.253472 30.137117 
L 267.539222 29.637523 
L 267.824971 28.804866 
L 268.11072 28.138741 
L 268.586968 28.263639 
L 269.158467 27.888944 
L 269.348966 28.055475 
L 269.634715 28.305272 
L 269.825215 28.138741 
L 270.396713 27.222818 
L 270.872961 25.724036 
L 271.15871 25.682403 
L 271.634959 24.891379 
L 271.825458 25.016278 
L 272.111208 25.64077 
L 272.396957 26.931389 
L 272.587456 28.971398 
L 273.063705 35.715918 
L 273.254204 35.466121 
L 273.444703 35.174691 
L 273.635203 36.548575 
L 273.825702 37.714294 
L 273.920952 37.589396 
L 274.206701 36.090613 
L 274.68295 33.134682 
L 274.873449 33.217947 
L 275.159198 32.343658 
L 275.254448 32.468556 
L 275.540197 33.759174 
L 275.825946 34.758363 
L 276.397444 35.257957 
L 276.968943 36.590208 
L 277.445191 37.006536 
L 277.540441 36.92327 
L 277.92144 35.674285 
L 278.016689 35.757551 
L 278.111939 35.632652 
L 278.683437 32.593455 
L 278.969187 32.093861 
L 279.540685 30.345281 
L 279.731184 31.136305 
L 280.207433 33.384479 
L 280.397932 33.925706 
L 280.778931 34.008971 
L 281.445679 35.049792 
L 281.826678 35.507754 
L 282.112427 35.591019 
L 282.302926 35.466121 
L 282.588675 34.841628 
L 282.874425 33.759174 
L 283.731672 29.804055 
L 284.112671 28.513436 
L 284.30317 28.471804 
L 284.684169 29.346093 
L 285.065168 29.970586 
L 285.350917 30.095484 
L 285.922415 31.177938 
L 286.112915 31.261204 
L 286.589163 31.885697 
L 287.54166 31.802431 
L 287.922659 31.34447 
L 288.303658 30.595079 
L 288.494157 31.802431 
L 288.970406 35.382855 
L 289.065655 34.71673 
L 289.446654 29.054663 
L 289.732403 28.555069 
L 290.018153 28.055475 
L 290.399151 27.430983 
L 290.589651 27.306084 
L 291.637398 25.807302 
L 292.304146 24.350152 
L 292.399395 24.350152 
L 292.685144 24.891379 
L 292.970893 26.348529 
L 293.732891 32.260392 
L 294.11389 33.55101 
L 294.304389 33.426112 
L 294.590139 33.051416 
L 294.685388 33.051416 
L 294.780638 32.843252 
L 295.161637 31.427735 
L 295.352136 31.386102 
L 295.542636 31.552634 
L 295.828385 32.260392 
L 296.018884 34.300401 
L 296.399883 38.630217 
L 296.590382 39.088178 
L 296.780882 39.088178 
L 297.44763 40.087366 
L 297.923878 41.294719 
L 298.304877 40.212265 
L 298.876375 37.339599 
L 299.162124 35.882449 
L 299.257374 35.882449 
L 300.114622 36.840005 
L 300.305121 36.548575 
L 300.49562 36.298778 
L 300.68612 36.382043 
L 300.876619 36.423676 
L 301.067119 36.257145 
L 301.162368 36.132246 
L 301.543367 34.758363 
L 301.638617 34.799995 
L 302.019616 35.257957 
L 302.495864 35.466121 
L 303.067362 36.257145 
L 303.353112 36.756739 
L 303.638861 37.256333 
L 303.92461 37.464497 
L 304.210359 37.714294 
L 304.496108 37.755927 
L 304.781857 37.672661 
L 305.353355 37.297966 
L 306.020103 37.339599 
L 306.401102 37.547763 
L 306.877351 37.464497 
L 307.06785 37.464497 
L 307.25835 38.463685 
L 307.448849 39.504506 
L 307.544099 39.379608 
L 307.829848 38.213888 
L 308.115597 38.422053 
L 308.306096 38.67185 
L 308.972844 40.128999 
L 309.544343 41.044921 
L 309.830092 40.711859 
L 310.211091 40.212265 
L 310.40159 40.212265 
L 310.592089 40.545327 
L 311.449337 42.960032 
L 311.639836 42.876766 
L 312.116085 43.542892 
L 312.782833 45.874331 
L 312.973332 46.040862 
L 313.259081 45.915964 
L 313.449581 46.165761 
L 313.925829 47.206582 
L 314.211578 47.33148 
L 314.592577 47.081683 
L 314.783076 47.206582 
L 315.259325 47.997606 
L 315.449824 48.080872 
L 315.640324 48.039239 
L 316.211822 48.330669 
L 316.87857 49.66292 
L 317.164319 50.245779 
L 318.021567 50.537209 
L 318.212066 50.495576 
L 318.688314 49.496388 
L 318.878814 49.912717 
L 319.355062 51.078436 
L 319.831311 51.619663 
L 320.02181 51.536397 
L 320.593309 50.495576 
L 320.688558 50.495576 
L 321.641055 52.077624 
L 321.926805 51.994359 
L 322.307803 51.619663 
L 322.593552 51.536397 
L 322.974551 51.453132 
L 323.2603 51.494764 
L 323.736549 51.86946 
L 323.927048 53.784571 
L 324.117548 55.699681 
L 324.498547 56.615604 
L 325.070045 56.990299 
L 325.260544 57.031932 
L 325.355794 56.990299 
L 325.451044 57.073565 
L 325.641543 58.197652 
L 325.832043 59.280106 
L 325.927292 59.321739 
L 326.213041 59.113574 
L 326.403541 59.280106 
L 326.975039 60.07113 
L 327.165538 59.696434 
L 327.451288 59.113574 
L 327.927536 58.572347 
L 328.118036 58.03112 
L 328.594284 56.11601 
L 328.880033 56.657237 
L 329.165782 56.40744 
L 329.356282 57.323362 
L 329.642031 58.947043 
L 329.83253 58.197652 
L 330.02303 57.573159 
L 330.213529 57.781323 
L 330.499278 57.698058 
L 330.785027 59.071941 
L 330.880277 58.780512 
L 331.070776 57.573159 
L 331.166026 57.906222 
L 331.547025 60.529091 
L 331.737524 59.862965 
L 331.928024 59.363371 
L 332.594772 59.280106 
L 333.16627 58.90541 
L 333.737768 59.155207 
L 333.928268 59.48827 
L 334.023517 59.238473 
L 334.499766 56.240908 
L 334.785515 55.200087 
L 335.261764 52.74375 
L 335.833262 49.413122 
L 336.119011 48.871896 
L 336.690509 47.997606 
L 337.166758 47.123316 
L 337.452507 47.373113 
L 337.833506 47.164949 
L 338.309754 47.456379 
L 338.500254 47.206582 
L 338.690753 46.956785 
L 339.071752 47.040051 
L 339.452751 47.456379 
L 339.7385 47.373113 
L 340.119499 47.289848 
L 340.309998 47.289848 
L 340.786247 46.582089 
L 340.976746 46.540456 
L 341.548244 46.165761 
L 342.214992 46.373925 
L 342.88174 45.374737 
L 343.07224 45.083307 
L 343.738988 45.624534 
L 343.929487 45.333104 
L 344.310486 44.333916 
L 344.405735 44.375549 
L 345.358233 46.249027 
L 345.929731 48.039239 
L 346.12023 48.413934 
L 346.31073 48.20577 
L 346.596479 49.121693 
L 346.786978 48.455567 
L 346.977478 48.164137 
L 347.167977 48.330669 
L 347.358476 47.789442 
L 348.215724 44.791877 
L 348.406223 44.625346 
L 348.691972 44.83351 
L 348.977721 44.583713 
L 349.168221 44.708611 
L 349.263471 44.625346 
L 349.54922 44.125752 
L 349.834969 44.209017 
L 350.120718 44.125752 
L 350.215968 44.167385 
L 350.311217 44.625346 
L 350.882716 49.995982 
L 351.168465 50.787006 
L 351.358964 50.870272 
L 351.549464 47.872707 
L 351.739963 44.458814 
L 351.835213 44.417182 
L 352.025712 45.166573 
L 352.120962 44.750244 
L 352.311461 43.126564 
L 352.406711 43.126564 
L 352.78771 44.54208 
L 352.978209 44.54208 
L 353.168709 45.458003 
L 353.454458 46.790254 
L 353.740207 46.540456 
L 353.930706 46.831886 
L 354.025956 46.582089 
L 354.406955 44.458814 
L 355.073703 43.417993 
L 355.645201 43.126564 
L 355.93095 42.293907 
L 356.883447 39.712671 
L 357.264446 38.713482 
L 357.645445 37.339599 
L 357.931194 37.048169 
L 358.121693 36.92327 
L 358.597942 36.215512 
L 358.978941 36.590208 
L 359.16944 36.506942 
L 359.35994 36.465309 
L 359.550439 36.590208 
L 359.931438 36.92327 
L 360.312437 36.881637 
L 360.788685 36.506942 
L 360.979185 36.92327 
L 361.169684 37.256333 
L 361.360183 36.298778 
L 361.741182 34.71673 
L 361.931682 34.466933 
L 362.31268 34.383667 
L 362.788929 33.426112 
L 363.550927 31.386102 
L 364.503424 33.217947 
L 364.979672 33.717542 
L 365.74167 33.634276 
L 365.932169 33.25958 
L 366.217918 32.385291 
L 366.313168 32.343658 
L 366.408418 32.426923 
L 366.979916 33.759174 
L 367.170416 33.55101 
L 367.551414 32.96815 
L 367.741914 32.510189 
L 368.027663 31.802431 
L 368.122913 31.968962 
L 368.88491 35.00816 
L 368.98016 35.091425 
L 369.170659 34.591831 
L 369.361159 34.13387 
L 369.456409 34.258768 
L 369.837407 35.715918 
L 370.313656 34.966527 
L 370.885154 35.591019 
L 371.075654 35.632652 
L 371.170903 35.591019 
L 371.361403 34.883261 
L 371.742401 32.843252 
L 371.932901 32.468556 
L 372.028151 32.468556 
L 372.21865 32.96815 
L 372.790148 35.174691 
L 373.075897 36.506942 
L 373.361647 39.504506 
L 373.552146 38.213888 
L 373.742645 37.672661 
L 374.123644 38.838381 
L 374.409393 38.921647 
L 374.599893 38.755115 
L 374.790392 38.67185 
L 375.36189 38.838381 
L 375.742889 38.755115 
L 376.028638 38.713482 
L 376.219138 38.963279 
L 376.600137 39.546139 
L 376.695386 39.462874 
L 376.885886 38.463685 
L 377.171635 36.215512 
L 377.362134 36.257145 
L 377.457384 36.048981 
L 377.743133 34.883261 
L 377.933632 35.341222 
L 378.314631 36.673473 
L 378.79088 36.215512 
L 379.267128 35.174691 
L 379.457628 35.00816 
L 379.648127 34.675097 
L 380.314875 32.926518 
L 380.600624 32.551822 
L 380.886373 32.260392 
L 381.267372 32.426923 
L 381.743621 31.844064 
L 381.93412 31.968962 
L 382.315119 31.885697 
L 382.505618 31.844064 
L 382.696118 31.719165 
L 383.172366 32.093861 
L 383.839114 31.594267 
L 384.505862 32.343658 
L 384.696362 32.218759 
L 384.886861 32.052228 
L 385.17261 32.093861 
L 385.458359 31.552634 
L 386.029858 30.719977 
L 386.315607 31.386102 
L 386.410856 31.261204 
L 386.791855 29.928953 
L 387.077604 29.762422 
L 387.363353 29.470992 
L 387.744352 29.88732 
L 387.839602 29.762422 
L 388.030101 28.721601 
L 388.4111 25.973833 
L 388.50635 25.848935 
L 388.6016 25.9322 
L 388.887349 26.598326 
L 389.077848 26.306896 
L 389.268348 26.057099 
L 389.458847 26.140365 
L 389.744596 26.639959 
L 390.030345 27.181186 
L 390.125595 27.222818 
L 390.411344 27.014654 
L 390.792343 27.139553 
L 391.268591 26.764857 
L 392.030589 27.09792 
L 392.411588 26.889756 
L 392.602087 26.931389 
L 392.887837 27.347717 
L 392.983086 27.264451 
L 393.364085 26.598326 
L 393.554584 26.598326 
L 393.649834 26.639959 
L 393.840334 26.348529 
L 394.411832 25.057911 
L 395.173829 24.100355 
L 396.126327 25.224442 
L 396.412076 25.141176 
L 396.602575 25.016278 
L 396.983574 24.683215 
L 397.174073 24.849746 
L 397.364573 25.057911 
L 397.555072 24.391785 
L 397.840821 23.350964 
L 397.936071 23.226066 
L 398.12657 22.351776 
L 398.41232 20.936259 
L 398.793318 20.311767 
L 398.983818 20.3534 
L 399.841065 21.352588 
L 400.126814 20.894627 
L 400.317314 21.310955 
L 400.507813 21.768916 
L 400.888812 21.310955 
L 401.079311 21.435854 
L 401.36506 21.727283 
L 401.65081 21.435854 
L 402.031808 21.435854 
L 402.317558 20.936259 
L 402.698556 20.186868 
L 403.079555 19.604009 
L 403.270055 19.645641 
L 403.936803 20.3534 
L 404.413051 20.686462 
L 404.508301 20.64483 
L 404.6988 20.186868 
L 404.8893 19.728907 
L 404.984549 19.77054 
L 405.651297 21.810549 
L 405.841797 23.600761 
L 406.032296 24.766481 
L 406.413295 18.521555 
L 406.508545 18.729719 
L 406.794294 19.354212 
L 406.984793 19.395844 
L 407.175293 19.312579 
L 407.651541 19.937071 
L 407.842041 19.437477 
L 408.03254 18.771352 
L 408.12779 18.812985 
L 408.604038 20.103603 
L 408.794538 19.437477 
L 409.080287 18.60482 
L 409.270786 18.271758 
L 409.937534 16.481546 
L 410.032784 16.564811 
L 410.509032 17.730531 
L 410.699532 17.355835 
L 410.985281 16.68971 
L 411.747279 15.857053 
L 411.937778 15.81542 
L 412.795025 17.480734 
L 412.985525 17.772164 
L 413.176024 17.522367 
L 413.557023 16.648077 
L 413.842772 16.39828 
L 414.033272 16.481546 
L 414.223771 16.39828 
L 414.50952 16.190116 
L 414.795269 15.898686 
L 415.081018 15.81542 
L 415.366767 15.565623 
L 416.033515 13.109285 
L 416.128765 13.483981 
L 416.414514 15.357459 
L 416.605014 14.691333 
L 417.176512 11.56887 
L 417.462261 11.360706 
L 417.74801 11.235808 
L 417.93851 11.652136 
L 418.033759 11.8603 
L 418.224259 11.443972 
L 418.319508 11.693769 
L 418.510008 15.066029 
L 418.795757 20.311767 
L 418.891007 20.561564 
L 418.986256 20.436665 
L 419.367255 18.313391 
L 419.653004 19.937071 
L 419.843504 19.978704 
L 420.034003 19.354212 
L 420.415002 18.021961 
L 420.605501 18.271758 
L 421.938997 20.936259 
L 422.510496 21.97708 
L 422.891494 23.267699 
L 422.986744 23.059534 
L 423.272493 21.768916 
L 423.653492 22.393409 
L 424.034491 22.143612 
L 424.510739 22.684839 
L 424.986988 23.392597 
L 426.415734 27.722412 
L 426.891982 27.430983 
L 427.368231 27.347717 
L 427.939729 27.181186 
L 428.511227 27.264451 
L 429.273225 28.388538 
L 429.558974 28.679968 
L 429.939973 28.555069 
L 430.130472 28.596702 
L 430.320972 28.305272 
L 430.79722 27.472615 
L 430.987719 27.597514 
L 431.654467 28.346905 
L 432.035466 27.68078 
L 432.511715 27.056287 
L 432.702214 26.764857 
L 433.845211 24.01709 
L 434.03571 23.933824 
L 434.321459 24.01709 
L 434.511959 24.183621 
L 434.988207 25.099544 
L 435.083457 25.057911 
L 435.273956 24.683215 
L 435.845455 22.684839 
L 435.845455 22.684839 
" style="fill:none;stroke:#1f77b4;stroke-linecap:square;stroke-width:1.5;"/>
   </g>
   <g id="patch_3">
    <path d="M 63 63 
L 63 8.64 
" style="fill:none;stroke:#000000;stroke-linecap:square;stroke-linejoin:miter;stroke-width:0.8;"/>
   </g>
   <g id="patch_4">
    <path d="M 453.6 63 
L 453.6 8.64 
" style="fill:none;stroke:#000000;stroke-linecap:square;stroke-linejoin:miter;stroke-width:0.8;"/>
   </g>
   <g id="patch_5">
    <path d="M 63 63 
L 453.6 63 
" style="fill:none;stroke:#000000;stroke-linecap:square;stroke-linejoin:miter;stroke-width:0.8;"/>
   </g>
   <g id="patch_6">
    <path d="M 63 8.64 
L 453.6 8.64 
" style="fill:none;stroke:#000000;stroke-linecap:square;stroke-linejoin:miter;stroke-width:0.8;"/>
   </g>
   <g id="text_10">
    <!-- p5346 Center: Z Profile -->
    <defs>
     <path d="M 18.109375 8.203125 
L 18.109375 -20.796875 
L 9.078125 -20.796875 
L 9.078125 54.6875 
L 18.109375 54.6875 
L 18.109375 46.390625 
Q 20.953125 51.265625 25.265625 53.625 
Q 29.59375 56 35.59375 56 
Q 45.5625 56 51.78125 48.09375 
Q 58.015625 40.1875 58.015625 27.296875 
Q 58.015625 14.40625 51.78125 6.484375 
Q 45.5625 -1.421875 35.59375 -1.421875 
Q 29.59375 -1.421875 25.265625 0.953125 
Q 20.953125 3.328125 18.109375 8.203125 
z
M 48.6875 27.296875 
Q 48.6875 37.203125 44.609375 42.84375 
Q 40.53125 48.484375 33.40625 48.484375 
Q 26.265625 48.484375 22.1875 42.84375 
Q 18.109375 37.203125 18.109375 27.296875 
Q 18.109375 17.390625 22.1875 11.75 
Q 26.265625 6.109375 33.40625 6.109375 
Q 40.53125 6.109375 44.609375 11.75 
Q 48.6875 17.390625 48.6875 27.296875 
z
" id="DejaVuSans-112"/>
     <path d="M 33.015625 40.375 
Q 26.375 40.375 22.484375 35.828125 
Q 18.609375 31.296875 18.609375 23.390625 
Q 18.609375 15.53125 22.484375 10.953125 
Q 26.375 6.390625 33.015625 6.390625 
Q 39.65625 6.390625 43.53125 10.953125 
Q 47.40625 15.53125 47.40625 23.390625 
Q 47.40625 31.296875 43.53125 35.828125 
Q 39.65625 40.375 33.015625 40.375 
z
M 52.59375 71.296875 
L 52.59375 62.3125 
Q 48.875 64.0625 45.09375 64.984375 
Q 41.3125 65.921875 37.59375 65.921875 
Q 27.828125 65.921875 22.671875 59.328125 
Q 17.53125 52.734375 16.796875 39.40625 
Q 19.671875 43.65625 24.015625 45.921875 
Q 28.375 48.1875 33.59375 48.1875 
Q 44.578125 48.1875 50.953125 41.515625 
Q 57.328125 34.859375 57.328125 23.390625 
Q 57.328125 12.15625 50.6875 5.359375 
Q 44.046875 -1.421875 33.015625 -1.421875 
Q 20.359375 -1.421875 13.671875 8.265625 
Q 6.984375 17.96875 6.984375 36.375 
Q 6.984375 53.65625 15.1875 63.9375 
Q 23.390625 74.21875 37.203125 74.21875 
Q 40.921875 74.21875 44.703125 73.484375 
Q 48.484375 72.75 52.59375 71.296875 
z
" id="DejaVuSans-54"/>
     <path d="M 64.40625 67.28125 
L 64.40625 56.890625 
Q 59.421875 61.53125 53.78125 63.8125 
Q 48.140625 66.109375 41.796875 66.109375 
Q 29.296875 66.109375 22.65625 58.46875 
Q 16.015625 50.828125 16.015625 36.375 
Q 16.015625 21.96875 22.65625 14.328125 
Q 29.296875 6.6875 41.796875 6.6875 
Q 48.140625 6.6875 53.78125 8.984375 
Q 59.421875 11.28125 64.40625 15.921875 
L 64.40625 5.609375 
Q 59.234375 2.09375 53.4375 0.328125 
Q 47.65625 -1.421875 41.21875 -1.421875 
Q 24.65625 -1.421875 15.125 8.703125 
Q 5.609375 18.84375 5.609375 36.375 
Q 5.609375 53.953125 15.125 64.078125 
Q 24.65625 74.21875 41.21875 74.21875 
Q 47.75 74.21875 53.53125 72.484375 
Q 59.328125 70.75 64.40625 67.28125 
z
" id="DejaVuSans-67"/>
     <path d="M 54.890625 33.015625 
L 54.890625 0 
L 45.90625 0 
L 45.90625 32.71875 
Q 45.90625 40.484375 42.875 44.328125 
Q 39.84375 48.1875 33.796875 48.1875 
Q 26.515625 48.1875 22.3125 43.546875 
Q 18.109375 38.921875 18.109375 30.90625 
L 18.109375 0 
L 9.078125 0 
L 9.078125 54.6875 
L 18.109375 54.6875 
L 18.109375 46.1875 
Q 21.34375 51.125 25.703125 53.5625 
Q 30.078125 56 35.796875 56 
Q 45.21875 56 50.046875 50.171875 
Q 54.890625 44.34375 54.890625 33.015625 
z
" id="DejaVuSans-110"/>
     <path d="M 41.109375 46.296875 
Q 39.59375 47.171875 37.8125 47.578125 
Q 36.03125 48 33.890625 48 
Q 26.265625 48 22.1875 43.046875 
Q 18.109375 38.09375 18.109375 28.8125 
L 18.109375 0 
L 9.078125 0 
L 9.078125 54.6875 
L 18.109375 54.6875 
L 18.109375 46.1875 
Q 20.953125 51.171875 25.484375 53.578125 
Q 30.03125 56 36.53125 56 
Q 37.453125 56 38.578125 55.875 
Q 39.703125 55.765625 41.0625 55.515625 
z
" id="DejaVuSans-114"/>
     <path d="M 11.71875 12.40625 
L 22.015625 12.40625 
L 22.015625 0 
L 11.71875 0 
z
M 11.71875 51.703125 
L 22.015625 51.703125 
L 22.015625 39.3125 
L 11.71875 39.3125 
z
" id="DejaVuSans-58"/>
     <path d="M 5.609375 72.90625 
L 62.890625 72.90625 
L 62.890625 65.375 
L 16.796875 8.296875 
L 64.015625 8.296875 
L 64.015625 0 
L 4.5 0 
L 4.5 7.515625 
L 50.59375 64.59375 
L 5.609375 64.59375 
z
" id="DejaVuSans-90"/>
     <path d="M 19.671875 64.796875 
L 19.671875 37.40625 
L 32.078125 37.40625 
Q 38.96875 37.40625 42.71875 40.96875 
Q 46.484375 44.53125 46.484375 51.125 
Q 46.484375 57.671875 42.71875 61.234375 
Q 38.96875 64.796875 32.078125 64.796875 
z
M 9.8125 72.90625 
L 32.078125 72.90625 
Q 44.34375 72.90625 50.609375 67.359375 
Q 56.890625 61.8125 56.890625 51.125 
Q 56.890625 40.328125 50.609375 34.8125 
Q 44.34375 29.296875 32.078125 29.296875 
L 19.671875 29.296875 
L 19.671875 0 
L 9.8125 0 
z
" id="DejaVuSans-80"/>
     <path d="M 30.609375 48.390625 
Q 23.390625 48.390625 19.1875 42.75 
Q 14.984375 37.109375 14.984375 27.296875 
Q 14.984375 17.484375 19.15625 11.84375 
Q 23.34375 6.203125 30.609375 6.203125 
Q 37.796875 6.203125 41.984375 11.859375 
Q 46.1875 17.53125 46.1875 27.296875 
Q 46.1875 37.015625 41.984375 42.703125 
Q 37.796875 48.390625 30.609375 48.390625 
z
M 30.609375 56 
Q 42.328125 56 49.015625 48.375 
Q 55.71875 40.765625 55.71875 27.296875 
Q 55.71875 13.875 49.015625 6.21875 
Q 42.328125 -1.421875 30.609375 -1.421875 
Q 18.84375 -1.421875 12.171875 6.21875 
Q 5.515625 13.875 5.515625 27.296875 
Q 5.515625 40.765625 12.171875 48.375 
Q 18.84375 56 30.609375 56 
z
" id="DejaVuSans-111"/>
     <path d="M 37.109375 75.984375 
L 37.109375 68.5 
L 28.515625 68.5 
Q 23.6875 68.5 21.796875 66.546875 
Q 19.921875 64.59375 19.921875 59.515625 
L 19.921875 54.6875 
L 34.71875 54.6875 
L 34.71875 47.703125 
L 19.921875 47.703125 
L 19.921875 0 
L 10.890625 0 
L 10.890625 47.703125 
L 2.296875 47.703125 
L 2.296875 54.6875 
L 10.890625 54.6875 
L 10.890625 58.5 
Q 10.890625 67.625 15.140625 71.796875 
Q 19.390625 75.984375 28.609375 75.984375 
z
" id="DejaVuSans-102"/>
     <path d="M 9.421875 75.984375 
L 18.40625 75.984375 
L 18.40625 0 
L 9.421875 0 
z
" id="DejaVuSans-108"/>
    </defs>
    <g transform="translate(174.281625 2.64)scale(0.144 -0.144)">
     <use xlink:href="#DejaVuSans-112"/>
     <use x="63.476562" xlink:href="#DejaVuSans-53"/>
     <use x="127.099609" xlink:href="#DejaVuSans-51"/>
     <use x="190.722656" xlink:href="#DejaVuSans-52"/>
     <use x="254.345703" xlink:href="#DejaVuSans-54"/>
     <use x="317.96875" xlink:href="#DejaVuSans-32"/>
     <use x="349.755859" xlink:href="#DejaVuSans-67"/>
     <use x="419.580078" xlink:href="#DejaVuSans-101"/>
     <use x="481.103516" xlink:href="#DejaVuSans-110"/>
     <use x="544.482422" xlink:href="#DejaVuSans-116"/>
     <use x="583.691406" xlink:href="#DejaVuSans-101"/>
     <use x="645.214844" xlink:href="#DejaVuSans-114"/>
     <use x="686.3125" xlink:href="#DejaVuSans-58"/>
     <use x="720.003906" xlink:href="#DejaVuSans-32"/>
     <use x="751.791016" xlink:href="#DejaVuSans-90"/>
     <use x="820.296875" xlink:href="#DejaVuSans-32"/>
     <use x="852.083984" xlink:href="#DejaVuSans-80"/>
     <use x="912.371094" xlink:href="#DejaVuSans-114"/>
     <use x="953.453125" xlink:href="#DejaVuSans-111"/>
     <use x="1014.634766" xlink:href="#DejaVuSans-102"/>
     <use x="1049.839844" xlink:href="#DejaVuSans-105"/>
     <use x="1077.623047" xlink:href="#DejaVuSans-108"/>
     <use x="1105.40625" xlink:href="#DejaVuSans-101"/>
    </g>
   </g>
  </g>
 </g>
 <defs>
  <clipPath id="pfd659919d2">
   <rect height="54.36" width="390.6" x="63" y="8.64"/>
  </clipPath>
 </defs>
</svg>
